{"title":"The Interview 2014 BDRip x264-SPARKS[rarbg]","uid":11695084,"size":704682579,"categoryP":"video","categoryS":"movies","magnet":"?xt=urn:btih:26b1d4b5b193902e07f96f8e73eb85c7aa0da81e&amp;dn=The+Interview+2014+BDRip+x264-SPARKS%5Brarbg%5D&amp;tr=udp%3A%2F%2Ftracker.openbittorrent.com%3A80&amp;tr=udp%3A%2F%2Fopen.demonii.com%3A1337&amp;tr=udp%3A%2F%2Ftracker.coppersurfer.tk%3A6969&amp;tr=udp%3A%2F%2Fexodus.desync.com%3A6969","seeders":17,"leechers":2,"uploader":"pwn321","files":7,"time":1423677033,"description":"The.Interview.2014.1080p.BluRay.x264-SPARKS\n\nRelease.Date: 30.01.2015\nVideo.......: X264 8624Kbps\nFrame.Rate..: 23.976\nResolution..: 1920x808\nAudio.......: DTS 1509Kbps 6ch\nLanguage....: English\nLength......: 1h 52mn\nSource......: Retail BluRay\nSize........: 8132MB\nSubtitles...: English\n\nIMDb: http://www.imdb.com/title/tt2788710\n\nALLiANCE - iMARS\n\nASCii/NFO: pH7 of SiLK\n\n[mediainfo]\nVideo\nID : 1\nFormat : AVC\nFormat/Info : Advanced Video Codec\nFormat profile : &lt;a class=&quot;__cf_email__&quot; href=&quot;/cdn-cgi/l/email-protection&quot; data-cfemail=&quot;2e664749466e621a001f&quot;&gt;[email&amp;#160;protected]&lt;/a&gt;&lt;script cf-hash='f9e31' type=&quot;text/javascript&quot;&gt;\n/* &lt;![CDATA[ */!function(){try{var t=&quot;currentScript&quot;in document?document.currentScript:function(){for(var t=document.getElementsByTagName(&quot;script&quot;),e=t.length;e--;)if(t[e].getAttribute(&quot;cf-hash&quot;))return t[e]}();if(t&amp;&amp;t.previousSibling){var e,r,n,i,c=t.previousSibling,a=c.getAttribute(&quot;data-cfemail&quot;);if(a){for(e=&quot;&quot;,r=parseInt(a.substr(0,2),16),n=2;a.length-n;n+=2)i=parseInt(a.substr(n,2),16)^r,e+=String.fromCharCode(i);e=document.createTextNode(e),c.parentNode.replaceChild(e,c)}}}catch(u){}}();/* ]]&gt; */&lt;/script&gt;\nFormat settings, CABAC : Yes\nFormat settings, ReFrames : 5 frames\nCodec ID : V_MPEG4/ISO/AVC\nDuration : 1h 52mn\nBit rate : 8 624 Kbps\nWidth : 1 920 pixels\nHeight : 808 pixels\nDisplay aspect ratio : 2.40:1\nFrame rate mode : Constant\nFrame rate : 23.976 fps\nColor space : YUV\nChroma subsampling : 4:2:0\nBit depth : 8 bits\nScan type : Progressive\nBits/(Pixel*Frame) : 0.232\nStream size : 6.60 GiB (83%)\nWriting library : x264 core 144 r2525 40bb568\nEncoding settings : cabac=1 / ref=5 / deblock=1:0:0 / analyse=0x3:0x133 / me=umh / subme=7 / psy=1 / psy_rd=1.00:0.00 / mixed_ref=1 / me_range=16 / chroma_me=1 / trellis=1 / 8x8dct=1 / cqm=0 / deadzone=21,11 / fast_pskip=0 / chroma_qp_offset=-2 / threads=18 / lookahead_threads=3 / sliced_threads=0 / nr=0 / decimate=1 / interlaced=0 / bluray_compat=0 / constrained_intra=0 / bframes=3 / b_pyramid=2 / b_adapt=1 / b_bias=0 / direct=1 / weightb=1 / open_gop=0 / weightp=2 / keyint=250 / keyint_min=23 / scenecut=40 / intra_refresh=0 / rc_lookahead=40 / rc=2pass / mbtree=1 / bitrate=8624 / ratetol=1.0 / qcomp=0.60 / qpmin=0 / qpmax=69 / qpstep=4 / cplxblur=20.0 / qblur=0.5 / ip_ratio=1.40 / aq=1:1.00\nLanguage : English\nDefault : Yes\nForced : No\n\nAudio\nID : 2\nFormat : DTS\nFormat/Info : Digital Theater Systems\nMode : 16\nFormat settings, Endianness : Big\nCodec ID : A_DTS\nDuration : 1h 52mn\nBit rate mode : Constant\nBit rate : 1 509 Kbps\nChannel(s) : 6 channels\nChannel positions : Front: L C R, Side: L R, LFE\nSampling rate : 48.0 KHz\nBit depth : 24 bits\nCompression mode : Lossy\nStream size : 1.18 GiB (15%)\nLanguage : English\nDefault : Yes\nForced : No\n\nMenu\n00:00:00.000 : en:00:00:00.000\n00:06:44.279 : en:00:06:44.279\n00:13:59.881 : en:00:13:59.881\n00:20:27.810 : en:00:20:27.810\n00:27:12.172 : en:00:27:12.172\n00:35:29.961 : en:00:35:29.961\n00:42:34.761 : en:00:42:34.761\n00:51:50.316 : en:00:51:50.316\n01:02:02.344 : en:01:02:02.344\n01:11:23.446 : en:01:11:23.446\n01:18:32.374 : en:01:18:32.374\n01:26:38.110 : en:01:26:38.110\n01:33:25.725 : en:01:33:25.725\n01:37:49.072 : en:01:37:49.072\n01:41:44.056 : en:01:41:44.056\n01:46:18.706 : en:01:46:18.706","torrent":{"xt":"urn:btih:26b1d4b5b193902e07f96f8e73eb85c7aa0da81e","amp;dn":"The+Interview+2014+BDRip+x264-SPARKS%5Brarbg%5D","amp;tr":["udp%3A%2F%2Ftracker.openbittorrent.com%3A80","udp%3A%2F%2Fopen.demonii.com%3A1337","udp%3A%2F%2Ftracker.coppersurfer.tk%3A6969","udp%3A%2F%2Fexodus.desync.com%3A6969"],"infoHash":"26b1d4b5b193902e07f96f8e73eb85c7aa0da81e","infoHashBuffer":{"type":"Buffer","data":[38,177,212,181,177,147,144,46,7,249,111,142,115,235,133,199,170,13,168,30]},"announce":[],"urlList":[]}}